# Exported from Wings 3D 0.98.20c
o cone1
#6 vertices, 8 faces
v -3.08676e-17 4.97548e-6 3.75000
v 0.250000 -4.62593e-18 3.70074e-17
v -5.38289e-17 0.250000 -3.31699e-7
v -0.250000 -6.05572e-18 3.70074e-17
v -5.09694e-17 -0.250000 3.31699e-7
v -4.47454e-17 -4.97548e-6 -3.75000
vn 0.00000e+0 1.32679e-6 1.000000
vn 1.00000 -3.92959e-17 -4.91199e-18
vn 0.00000e+0 1.000000 -1.32679e-6
vn -1.00000 0.00000e+0 0.00000e+0
vn 3.92959e-17 -1.000000 1.32679e-6
vn 5.89439e-16 -1.32679e-6 -1.000000
g cone1_default
usemtl default
f 2//2 1//1 5//5
f 2//2 6//6 3//3
f 3//3 1//1 2//2
f 3//3 6//6 4//4
f 4//4 1//1 3//3
f 4//4 6//6 5//5
f 5//5 1//1 4//4
f 5//5 6//6 2//2
