# Exported from Wings 3D 0.98.20c
mtllib missle.mtl
o cylinder1
#49 vertices, 94 faces
v 7.44080e-2 3.28065e-6 -1.04347
v 5.26144e-2 5.26177e-2 -1.04347
v -1.79133e-17 7.44113e-2 -1.04347
v -5.26144e-2 5.26177e-2 -1.04347
v -7.44080e-2 3.28065e-6 -1.04347
v -5.26144e-2 -5.26111e-2 -1.04347
v -3.61374e-17 -7.44047e-2 -1.04347
v 5.26144e-2 -5.26111e-2 -1.04347
v 7.91328e-2 7.91363e-2 -1.17298
v 0.111911 3.45248e-6 -1.17298
v 7.91328e-2 -7.91294e-2 -1.17298
v -4.24897e-17 -0.111907 -1.17298
v -7.91328e-2 -7.91294e-2 -1.17298
v -0.111911 3.45248e-6 -1.17298
v -7.91328e-2 7.91363e-2 -1.17298
v -2.84123e-17 0.111914 -1.17298
v -2.75818e-17 3.79236e-6 -1.42914
v 7.44080e-2 5.75454e-7 0.995427
v 5.26144e-2 5.26150e-2 0.995427
v -1.79133e-17 7.44086e-2 0.995427
v -5.26144e-2 5.26150e-2 0.995427
v -7.44080e-2 5.75454e-7 0.995427
v -5.26144e-2 -5.26138e-2 0.995427
v -3.61374e-17 -7.44074e-2 0.995427
v 5.26144e-2 -5.26138e-2 0.995427
v 7.44080e-2 3.32938e-7 1.17821
v 5.26144e-2 5.26147e-2 1.17821
v 1.78836e-17 7.44083e-2 1.17821
v -5.26144e-2 5.26147e-2 1.17821
v -7.44080e-2 3.32938e-7 1.17821
v -5.26144e-2 -5.26141e-2 1.17821
v -7.39956e-17 -7.44077e-2 1.17821
v 5.26144e-2 -5.26141e-2 1.17821
v 0.100302 1.15142e-7 1.34236
v 7.09242e-2 7.09243e-2 1.34236
v 7.73282e-17 0.100302 1.34236
v -7.09242e-2 7.09243e-2 1.34236
v -0.100302 1.15142e-7 1.34236
v -7.09242e-2 -7.09241e-2 1.34236
v -1.43384e-16 -0.100302 1.34236
v 7.09242e-2 -7.09241e-2 1.34236
v 8.93657e-2 -0.215748 1.28284
v 9.75254e-2 -0.235447 1.42914
v -0.215748 -8.93655e-2 1.28284
v -0.235447 -9.75254e-2 1.42914
v -8.93657e-2 0.215748 1.28284
v -9.75254e-2 0.235447 1.42914
v 0.215748 8.93659e-2 1.28284
v 0.235447 9.75254e-2 1.42914
vn 0.995582 -1.24587e-7 9.39009e-2
vn 0.654620 0.738699 0.160614
vn -0.135435 0.980906 0.139576
vn -0.789372 0.597838 0.139575
vn -0.990028 -1.86909e-7 0.140872
vn -0.789372 -0.597838 0.139574
vn -0.135435 -0.980906 0.139573
vn 0.654620 -0.738700 0.160612
vn 0.705562 0.705562 -6.60675e-2
vn 0.998546 -7.15328e-8 5.39140e-2
vn 0.705562 -0.705562 -6.60694e-2
vn 8.38937e-2 -0.996456 6.08308e-3
vn -0.645279 -0.763923 6.08339e-3
vn -0.998546 -7.15328e-8 5.39140e-2
vn -0.645279 0.763923 6.08541e-3
vn 8.38937e-2 0.996456 6.08572e-3
vn 9.26978e-17 1.32679e-6 -1.000000
vn 0.964777 -0.245172 -9.53730e-2
vn 0.628667 0.771491 -9.78712e-2
vn 0.267834 0.960122 -8.01870e-2
vn -0.801702 0.592029 -8.23084e-2
vn -0.985517 0.148261 -8.23090e-2
vn -0.508838 -0.855563 -9.53739e-2
vn -0.148261 -0.985517 -8.23105e-2
vn 0.855563 -0.508838 -9.53734e-2
vn 0.772370 -0.632174 -6.16533e-2
vn 0.159102 0.986034 -4.92275e-2
vn 0.584001 0.807864 -7.93694e-2
vn -0.984197 0.158295 -7.93703e-2
vn -0.809733 0.584729 -4.92280e-2
vn -0.159102 -0.986034 -4.92301e-2
vn -0.584001 -0.807864 -7.93715e-2
vn 0.977996 -0.197932 -6.59377e-2
vn 0.658657 -0.652165 0.375302
vn 3.57804e-3 0.722306 0.691565
vn 0.479089 0.366355 0.797658
vn -0.716420 -9.55297e-2 0.691098
vn -0.658657 0.652164 0.375304
vn -3.57804e-3 -0.722307 0.691563
vn -0.479089 -0.366357 0.797657
vn 0.716420 9.55279e-2 0.691098
vn 0.361306 -0.872269 -0.329552
vn 1.18823e-2 -2.86877e-2 0.999518
vn -0.872270 -0.361305 -0.329551
vn -2.86864e-2 -1.18836e-2 0.999518
vn -0.361306 0.872270 -0.329550
vn -1.18823e-2 2.86851e-2 0.999518
vn 0.872270 0.361306 -0.329550
vn 2.86864e-2 1.18810e-2 0.999518
g cylinder1_Missle
usemtl Missle
f 1//1 10//10 2//2
f 1//1 19//19 18//18
f 1//1 25//25 8//8
f 2//2 16//16 3//3
f 2//2 19//19 1//1
f 2//2 20//20 19//19
f 3//3 15//15 4//4
f 3//3 20//20 2//2
f 3//3 21//21 20//20
f 4//4 14//14 5//5
f 4//4 21//21 3//3
f 4//4 22//22 21//21
f 5//5 14//14 6//6
f 5//5 22//22 4//4
f 6//6 13//13 7//7
f 6//6 22//22 5//5
f 7//7 12//12 8//8
f 7//7 23//23 6//6
f 8//8 10//10 1//1
f 8//8 24//24 7//7
f 9//9 2//2 10//10
f 9//9 16//16 2//2
f 9//9 17//17 16//16
f 10//10 8//8 11//11
f 10//10 17//17 9//9
f 11//11 8//8 12//12
f 11//11 17//17 10//10
f 12//12 7//7 13//13
f 12//12 17//17 11//11
f 13//13 6//6 14//14
f 13//13 17//17 12//12
f 14//14 4//4 15//15
f 14//14 17//17 13//13
f 15//15 3//3 16//16
f 15//15 17//17 14//14
f 16//16 17//17 15//15
f 18//18 25//25 1//1
f 19//19 20//20 27//27
f 23//23 22//22 6//6
f 23//23 24//24 31//31
f 24//24 23//23 7//7
f 25//25 18//18 33//33
f 25//25 24//24 8//8
f 26//26 34//34 33//33
f 27//27 20//20 28//28
f 28//28 35//35 27//27
f 29//29 21//21 30//30
f 30//30 21//21 22//22
f 30//30 38//38 29//29
f 31//31 24//24 32//32
f 32//32 39//39 31//31
f 33//33 18//18 26//26
f 35//35 28//28 36//36
f 37//37 29//29 38//38
f 39//39 32//32 40//40
f 41//41 33//33 34//34
g cylinder1_Red
usemtl Red
f 35//35 41//41 34//34
f 36//36 40//40 35//35
f 37//37 39//39 36//36
f 38//38 39//39 37//37
f 40//40 36//36 39//39
f 41//41 35//35 40//40
g cylinder1_tailfins
usemtl tailfins
f 19//19 48//48 18//18
f 21//21 46//46 20//20
f 23//23 44//44 22//22
f 25//25 42//42 24//24
f 26//26 18//18 48//48
f 27//27 48//48 19//19
f 28//28 20//20 46//46
f 29//29 46//46 21//21
f 30//30 22//22 44//44
f 31//31 44//44 23//23
f 32//32 24//24 42//42
f 33//33 42//42 25//25
f 34//34 48//48 49//49
f 34//34 49//49 35//35
f 35//35 48//48 27//27
f 36//36 46//46 47//47
f 36//36 47//47 37//37
f 37//37 46//46 29//29
f 38//38 44//44 45//45
f 38//38 45//45 39//39
f 39//39 44//44 31//31
f 40//40 42//42 43//43
f 40//40 43//43 41//41
f 41//41 42//42 33//33
f 42//42 40//40 32//32
f 43//43 42//42 41//41
f 44//44 38//38 30//30
f 45//45 44//44 39//39
f 46//46 36//36 28//28
f 47//47 46//46 37//37
f 48//48 34//34 26//26
f 49//49 48//48 35//35
