# Exported from Wings 3D 0.98.20c
mtllib missle.mtl
o cylinder1
#49 vertices, 57 faces
v 7.44080e-2 3.28065e-6 -1.04347
v 5.26144e-2 5.26177e-2 -1.04347
v -1.79133e-17 7.44113e-2 -1.04347
v -5.26144e-2 5.26177e-2 -1.04347
v -7.44080e-2 3.28065e-6 -1.04347
v -5.26144e-2 -5.26111e-2 -1.04347
v -3.61374e-17 -7.44047e-2 -1.04347
v 5.26144e-2 -5.26111e-2 -1.04347
v 7.91328e-2 7.91363e-2 -1.17298
v 0.111911 3.45248e-6 -1.17298
v 7.91328e-2 -7.91294e-2 -1.17298
v -4.24897e-17 -0.111907 -1.17298
v -7.91328e-2 -7.91294e-2 -1.17298
v -0.111911 3.45248e-6 -1.17298
v -7.91328e-2 7.91363e-2 -1.17298
v -2.84123e-17 0.111914 -1.17298
v -2.75818e-17 3.79236e-6 -1.42914
v 7.44080e-2 5.75454e-7 0.995427
v 5.26144e-2 5.26150e-2 0.995427
v -1.79133e-17 7.44086e-2 0.995427
v -5.26144e-2 5.26150e-2 0.995427
v -7.44080e-2 5.75454e-7 0.995427
v -5.26144e-2 -5.26138e-2 0.995427
v -3.61374e-17 -7.44074e-2 0.995427
v 5.26144e-2 -5.26138e-2 0.995427
v 7.44080e-2 3.32938e-7 1.17821
v 5.26144e-2 5.26147e-2 1.17821
v 1.78836e-17 7.44083e-2 1.17821
v -5.26144e-2 5.26147e-2 1.17821
v -7.44080e-2 3.32938e-7 1.17821
v -5.26144e-2 -5.26141e-2 1.17821
v -7.39956e-17 -7.44077e-2 1.17821
v 5.26144e-2 -5.26141e-2 1.17821
v 0.100302 1.15142e-7 1.34236
v 7.09242e-2 7.09243e-2 1.34236
v 7.73282e-17 0.100302 1.34236
v -7.09242e-2 7.09243e-2 1.34236
v -0.100302 1.15142e-7 1.34236
v -7.09242e-2 -7.09241e-2 1.34236
v -1.43384e-16 -0.100302 1.34236
v 7.09242e-2 -7.09241e-2 1.34236
v 8.93657e-2 -0.215748 1.28284
v 9.75254e-2 -0.235447 1.42914
v -0.215748 -8.93655e-2 1.28284
v -0.235447 -9.75254e-2 1.42914
v -8.93657e-2 0.215748 1.28284
v -9.75254e-2 0.235447 1.42914
v 0.215748 8.93659e-2 1.28284
v 0.235447 9.75254e-2 1.42914
vn 0.990028 -1.86909e-7 0.140872
vn 0.700055 0.700055 0.140873
vn 6.05137e-17 0.990028 0.140874
vn -0.700055 0.700055 0.140873
vn -0.990028 -1.86909e-7 0.140872
vn -0.700055 -0.700056 0.140872
vn -6.05137e-17 -0.990028 0.140871
vn 0.700055 -0.700056 0.140872
vn 0.705562 0.705562 -6.60675e-2
vn 0.997815 8.76593e-8 -6.60684e-2
vn 0.705562 -0.705562 -6.60694e-2
vn -1.58327e-17 -0.997815 -6.60698e-2
vn -0.705562 -0.705562 -6.60694e-2
vn -0.997815 8.76593e-8 -6.60684e-2
vn -0.705562 0.705562 -6.60675e-2
vn 2.37491e-16 0.997815 -6.60671e-2
vn 9.26978e-17 1.32679e-6 -1.000000
vn 0.970263 -0.211628 -0.117489
vn 0.536435 0.835723 -0.117487
vn 0.211628 0.970263 -0.117487
vn -0.835723 0.536436 -0.117488
vn -0.970263 0.211629 -0.117488
vn -0.536435 -0.835723 -0.117490
vn -0.211628 -0.970263 -0.117490
vn 0.835723 -0.536435 -0.117489
vn 0.774300 -0.630442 -5.47989e-2
vn 0.101723 0.993302 -5.47967e-2
vn 0.630442 0.774300 -5.47970e-2
vn -0.993302 0.101723 -5.47979e-2
vn -0.774300 0.630442 -5.47972e-2
vn -0.101723 -0.993302 -5.47994e-2
vn -0.630442 -0.774300 -5.47991e-2
vn 0.993302 -0.101723 -5.47982e-2
vn 0.443489 -0.566633 0.694438
vn -8.70754e-2 0.714263 0.694440
vn 0.566632 0.443488 0.694439
vn -0.714264 -8.70764e-2 0.694439
vn -0.443489 0.566631 0.694440
vn 8.70754e-2 -0.714265 0.694438
vn -0.566632 -0.443490 0.694438
vn 0.714264 8.70745e-2 0.694439
vn 0.358473 -0.865431 -0.350037
vn 6.39243e-4 -1.54460e-3 0.999999
vn -0.865431 -0.358473 -0.350036
vn -1.54327e-3 -6.40570e-4 0.999999
vn -0.358473 0.865432 -0.350035
vn -6.39243e-4 1.54194e-3 0.999999
vn 0.865431 0.358474 -0.350035
vn 1.54327e-3 6.37916e-4 0.999999
g cylinder1_default
usemtl default
f 1//1 10//10 9//9 2//2
f 1//1 18//18 25//25 8//8
f 2//2 9//9 16//16 3//3
f 2//2 19//19 18//18 1//1
f 3//3 16//16 15//15 4//4
f 3//3 20//20 19//19 2//2
f 4//4 15//15 14//14 5//5
f 4//4 21//21 20//20 3//3
f 5//5 14//14 13//13 6//6
f 5//5 22//22 21//21 4//4
f 6//6 13//13 12//12 7//7
f 6//6 23//23 22//22 5//5
f 7//7 12//12 11//11 8//8
f 7//7 24//24 23//23 6//6
f 8//8 11//11 10//10 1//1
f 8//8 25//25 24//24 7//7
f 9//9 17//17 16//16
f 10//10 17//17 9//9
f 11//11 17//17 10//10
f 12//12 17//17 11//11
f 13//13 17//17 12//12
f 14//14 17//17 13//13
f 15//15 17//17 14//14
f 16//16 17//17 15//15
f 19//19 48//48 18//18
f 21//21 46//46 20//20
f 23//23 44//44 22//22
f 25//25 42//42 24//24
f 26//26 18//18 48//48
f 26//26 34//34 41//41 33//33
f 27//27 19//19 20//20 28//28
f 27//27 48//48 19//19
f 28//28 20//20 46//46
f 28//28 36//36 35//35 27//27
f 29//29 21//21 22//22 30//30
f 29//29 46//46 21//21
f 30//30 22//22 44//44
f 30//30 38//38 37//37 29//29
f 31//31 23//23 24//24 32//32
f 31//31 44//44 23//23
f 32//32 24//24 42//42
f 32//32 40//40 39//39 31//31
f 33//33 25//25 18//18 26//26
f 33//33 42//42 25//25
f 34//34 49//49 35//35
f 35//35 36//36 37//37 38//38 39//39 40//40 41//41 34//34
f 35//35 49//49 48//48 27//27
f 36//36 47//47 37//37
f 37//37 47//47 46//46 29//29
f 38//38 45//45 39//39
f 39//39 45//45 44//44 31//31
f 40//40 43//43 41//41
f 41//41 43//43 42//42 33//33
f 42//42 43//43 40//40 32//32
f 44//44 45//45 38//38 30//30
f 46//46 47//47 36//36 28//28
f 48//48 49//49 34//34 26//26
