# Exported from Wings 3D 0.98.20c
mtllib ship3.mtl
o cube1_cut7
#9 vertices, 14 faces
v 1.00000 1.96400 1.00000
v 1.00000 1.66800 1.00000
v 1.00000 1.66800 -1.00000
v 5.17400 0.140000 -1.56200
v 5.17400 -0.156000 -1.56200
v 5.17400 -0.156000 -2.62200
v 6.34800 0.140000 -1.56200
v 6.34800 -0.156000 -1.56200
v 6.34800 -0.156000 -2.62200
vn -0.128849 0.788517 0.601364
vn -0.180034 -0.465766 0.866401
vn -0.947767 1.73488e-2 -0.318490
vn 0.433161 0.729953 0.528715
vn -6.89268e-2 -0.702988 0.707853
vn -0.122923 -8.92560e-2 -0.988394
vn 0.382126 0.736092 0.558702
vn 0.408248 -0.816497 0.408248
vn 0.965072 -3.55605e-2 -0.259562
g cube1_cut7
usemtl Wings
f 1//1 3//3 2//2
f 2//2 4//4 1//1
f 3//3 4//4 6//6
f 3//3 5//5 2//2
f 4//4 2//2 5//5
f 4//4 3//3 1//1
f 5//5 3//3 6//6
f 5//5 7//7 4//4
f 6//6 7//7 9//9
f 6//6 8//8 5//5
f 7//7 5//5 8//8
f 7//7 6//6 4//4
f 8//8 6//6 9//9
f 8//8 9//9 7//7
o cube1_cut6
#9 vertices, 14 faces
v -1.00000 1.66800 1.00000
v -1.00000 1.96400 1.00000
v -1.00000 1.66800 -1.00000
v -5.17400 -0.156000 -1.56200
v -5.17400 0.140000 -1.56200
v -5.17400 -0.156000 -2.62200
v -6.34800 -0.156000 -1.56200
v -6.34800 0.140000 -1.56200
v -6.34800 -0.156000 -2.62200
vn 0.574046 -0.599577 0.557655
vn -0.198862 0.502747 0.841249
vn 0.947767 1.73488e-2 -0.318490
vn -5.22394e-2 -0.815941 0.575770
vn -0.261505 0.860630 0.436956
vn 0.184402 -6.51163e-2 -0.980691
vn -0.408248 -0.408248 0.816497
vn -0.637306 0.613823 0.465899
vn -0.878824 -6.47649e-2 -0.472730
g cube1_cut6
usemtl Wings
f 10//10 12//12 11//11
f 10//10 13//13 12//12
f 11//11 12//12 14//14
f 11//11 13//13 10//10
f 13//13 11//11 14//14
f 13//13 18//18 15//15
f 14//14 16//16 13//13
f 14//14 18//18 17//17
f 15//15 12//12 13//13
f 15//15 14//14 12//12
f 16//16 14//14 17//17
f 16//16 18//18 13//13
f 17//17 18//18 16//16
f 18//18 14//14 15//15
o cube1_cut5
#12 vertices, 20 faces
v -1.00000 1.66800 1.00000
v -1.00000 1.96400 1.00000
v 1.00000 1.96400 1.00000
v 1.00000 1.66800 1.00000
v -1.00000 1.66800 -1.00000
v -1.00000 1.96400 -1.00000
v 1.00000 1.96400 -1.00000
v 1.00000 1.66800 -1.00000
v -0.270355 -0.687113 -3.67694
v 0.365645 -0.687113 -3.67694
v -0.635177 0.786444 -2.33847
v 0.682823 0.786444 -2.33847
vn -0.408248 -0.408248 0.816497
vn -0.816497 0.408248 0.408248
vn 0.577350 0.577350 0.577350
vn 0.408248 -0.816497 0.408248
vn -0.738220 -0.657813 0.149372
vn -0.455201 0.811241 -0.366987
vn 0.708636 0.628811 -0.320051
vn 0.913099 -0.405121 4.61316e-2
vn -0.939579 -7.63827e-2 -0.333702
vn 0.918012 -0.147994 -0.367902
vn -0.494493 0.537012 -0.683443
vn 0.504569 0.563644 -0.654000
g cube1_cut5
usemtl Wings
f 19//19 21//21 20//20
f 19//19 23//23 22//22
f 20//20 23//23 19//19
f 21//21 24//24 20//20
f 21//21 26//26 25//25
f 22//22 21//21 19//19
f 22//22 23//23 26//26
f 22//22 26//26 21//21
f 23//23 28//28 26//26
f 23//23 29//29 27//27
f 24//24 23//23 20//20
f 24//24 29//29 23//23
f 24//24 30//30 29//29
f 25//25 24//24 21//21
f 25//25 30//30 24//24
f 26//26 30//30 25//25
f 27//27 28//28 23//23
f 27//27 29//29 28//28
f 28//28 30//30 26//26
f 30//30 28//28 29//29
o cube1_cut4
#7 vertices, 10 faces
v 6.34800 0.140000 -1.56200
v 6.34800 -0.156000 -1.56200
v 6.34800 -0.156000 -2.62200
v 6.64800 -0.156000 -1.56200
v 6.64800 -0.156000 1.21200
v 6.34800 0.140000 1.21200
v 6.34800 -0.156000 1.21200
vn 4.38656e-2 0.994847 -9.14098e-2
vn -0.832050 -0.554700 0.00000e+0
vn -0.654601 -0.635015 -0.410188
vn 0.655712 -0.749399 -9.18905e-2
vn 0.791120 0.238612 0.563199
vn -0.726477 0.398513 0.559838
vn -0.408248 -0.816497 0.408248
g cube1_cut4
usemtl Guns
f 37//37 35//35 36//36
usemtl Wings
f 31//31 33//33 32//32
f 31//31 34//34 33//33
f 32//32 36//36 31//31
f 33//33 34//34 32//32
f 34//34 31//31 35//35
f 34//34 37//37 32//32
f 35//35 37//37 34//34
f 36//36 32//32 37//37
f 36//36 35//35 31//31
o cube1_cut3
#7 vertices, 10 faces
v -6.34800 -0.156000 -1.56200
v -6.34800 0.140000 -1.56200
v -6.34800 -0.156000 -2.62200
v -6.64800 -0.156000 -1.56200
v -6.64800 -0.156000 1.21200
v -6.34800 -0.156000 1.21200
v -6.34800 0.140000 1.21200
vn 0.554700 -0.832050 0.00000e+0
vn 0.748934 0.656399 -9.07604e-2
vn 0.654601 -0.635015 -0.410188
vn -0.994024 5.78544e-2 -9.25685e-2
vn -0.395560 -0.725492 0.563199
vn 0.816497 -0.408248 0.408248
vn -0.226561 0.797026 0.559838
g cube1_cut3
usemtl Guns
f 43//43 44//44 42//42
usemtl Wings
f 38//38 40//40 39//39
f 38//38 41//41 40//40
f 38//38 42//42 41//41
f 39//39 41//41 44//44
f 39//39 43//43 38//38
f 40//40 41//41 39//39
f 42//42 38//38 43//43
f 42//42 44//44 41//41
f 43//43 39//39 44//44
o octotoad2
#24 vertices, 44 faces
v 1.66800 0.556000 0.556000
v 1.66800 0.556000 -0.556000
v 1.66800 -0.556000 0.556000
v 1.66800 -0.556000 -0.556000
v -1.66800 0.556000 0.556000
v -1.66800 0.556000 -0.556000
v -1.66800 -0.556000 0.556000
v -1.66800 -0.556000 -0.556000
v 0.556000 1.66800 0.556000
v 0.556000 1.66800 -0.556000
v 0.556000 -1.66800 0.556000
v 0.556000 -1.66800 -0.556000
v 0.556000 0.556000 1.66800
v 0.556000 0.556000 -1.66800
v 0.556000 -0.556000 1.66800
v 0.556000 -0.556000 -1.66800
v -0.556000 1.66800 0.556000
v -0.556000 1.66800 -0.556000
v -0.556000 -1.66800 0.556000
v -0.556000 -1.66800 -0.556000
v -0.556000 0.556000 1.66800
v -0.556000 0.556000 -1.66800
v -0.556000 -0.556000 1.66800
v -0.556000 -0.556000 -1.66800
vn 0.886848 0.326727 0.326727
vn 0.841993 0.292403 -0.453374
vn 0.841993 -0.453374 0.292403
vn 0.910182 -0.292890 -0.292890
vn -0.854763 0.367001 0.367001
vn -0.892863 0.378446 -0.244078
vn -0.892863 -0.244078 0.378446
vn -0.842549 -0.380861 -0.380861
vn 0.292890 0.910182 0.292890
vn 0.380861 0.842549 -0.380861
vn 0.292890 -0.910182 0.292890
vn 0.380861 -0.842549 -0.380861
vn 0.244078 0.378446 0.892863
vn 0.292890 0.292890 -0.910182
vn 0.380861 -0.380861 0.842549
vn 0.453374 -0.292403 -0.841993
vn -0.380861 0.842549 0.380861
vn -0.292890 0.910182 -0.292890
vn -0.380861 -0.842549 0.380861
vn -0.292890 -0.910182 -0.292890
vn -0.453374 0.292403 0.841993
vn -0.380861 0.380861 -0.842549
vn -0.292890 -0.292890 0.910182
vn -0.244078 -0.378446 -0.892863
g octotoad2
usemtl Pod
f 45//45 48//48 46//46
f 45//45 54//54 53//53
f 45//45 59//59 47//47
f 46//46 54//54 45//45
f 46//46 58//58 54//54
f 46//46 60//60 58//58
f 47//47 48//48 45//45
f 47//47 56//56 48//48
f 47//47 59//59 55//55
f 48//48 60//60 46//46
f 49//49 61//61 50//50
f 49//49 65//65 61//61
f 50//50 51//51 49//49
f 50//50 61//61 62//62
f 50//50 66//66 52//52
f 51//51 65//65 49//49
f 52//52 51//51 50//50
f 52//52 63//63 51//51
f 52//52 66//66 68//68
f 52//52 68//68 64//64
f 53//53 57//57 45//45
f 53//53 61//61 57//57
f 53//53 62//62 61//61
f 54//54 62//62 53//53
f 54//54 66//66 62//62
f 55//55 56//56 47//47
f 55//55 64//64 56//56
f 56//56 60//60 48//48
f 56//56 68//68 60//60
f 57//57 59//59 45//45
f 57//57 61//61 65//65
f 57//57 67//67 59//59
f 58//58 66//66 54//54
f 58//58 68//68 66//66
f 59//59 63//63 55//55
f 60//60 68//68 58//58
f 62//62 66//66 50//50
f 63//63 64//64 55//55
f 63//63 67//67 51//51
f 64//64 63//63 52//52
f 64//64 68//68 56//56
f 65//65 67//67 57//57
f 67//67 63//63 59//59
f 67//67 65//65 51//51
o cube1
#18 vertices, 29 faces
v -0.270355 -0.687113 -3.67694
v 0.365645 -0.687113 -3.67694
v -0.635177 0.786444 -2.33847
v 0.682823 0.786444 -2.33847
v -0.270355 -0.391113 -5.78294
v 0.365645 -0.391113 -5.78294
v 0.365645 -0.391113 -5.78294
v -0.270355 -0.391113 -5.78294
v -0.635177 0.786444 -4.44447
v 0.682823 0.786444 -4.44447
v 0.246162 -0.296909 -5.67586
v -0.153967 -0.296909 -5.67586
v -0.460419 0.692240 -4.55155
v 0.512592 0.692240 -4.55155
v 0.246162 -0.296909 -5.49786
v -0.153967 -0.296909 -5.49786
v -0.460419 0.692240 -4.37355
v 0.512592 0.692240 -4.37355
vn -0.356308 -0.907980 0.220493
vn 0.326299 -0.838213 0.436954
vn -0.704808 -0.449954 0.548441
vn 0.864320 0.390607 0.316824
vn 0.00000e+0 0.00000e+0 0.00000e+0
vn 7.44277e-2 -0.987520 -0.138797
vn 0.584166 0.288303 -0.758704
vn -0.584890 0.466035 -0.663864
vn -0.174247 0.858686 -0.481972
vn 0.259805 0.805123 -0.533178
vn -0.189045 0.834673 -0.517284
vn 0.189061 0.900236 -0.392212
vn 0.744160 0.425935 -0.514593
vn -0.672225 0.268920 -0.689779
vn -0.415050 0.864361 -0.283925
vn 0.617418 0.757115 -0.213475
vn 0.581468 -0.123251 -0.804179
vn -0.825324 9.29886e-3 -0.564584
g cube1
usemtl Engine
f 84//84 85//85 83//83
f 86//86 83//83 85//85
usemtl Wings
f 69//69 74//74 70//70
f 70//70 71//71 69//69
f 71//71 70//70 72//72
f 72//72 77//77 71//71
f 73//73 69//69 74//74
f 74//74 69//69 73//73
f 74//74 75//75 72//72 70//70
f 75//75 74//74 69//69 71//71 76//76
f 75//75 79//79 78//78
f 76//76 71//71 77//77
f 76//76 79//79 75//75
f 77//77 72//72 78//78
f 77//77 80//80 76//76
f 78//78 72//72 75//75
f 78//78 82//82 77//77
f 79//79 76//76 80//80
f 79//79 83//83 82//82
f 80//80 77//77 81//81
f 80//80 83//83 79//79
f 81//81 77//77 82//82
f 81//81 84//84 80//80
f 82//82 78//78 79//79
f 82//82 85//85 81//81
f 83//83 80//80 84//84
f 84//84 81//81 85//85
f 85//85 82//82 86//86
f 86//86 82//82 83//83
