# Exported from Wings 3D 0.98.20c
mtllib FlyingTurret.mtl
o cylinder10_cut14
#8 vertices, 12 faces
v 0.750000 0.750000 0.00000e+0
v 0.375000 0.750000 0.649519
v -0.375000 0.750000 0.649519
v 0.375000 0.750000 -0.649519
v 0.750000 -0.750000 0.00000e+0
v 0.375000 -0.750000 0.649519
v -0.375000 -0.750000 -0.649519
v 0.375000 -0.750000 -0.649519
vn 0.783349 0.603023 -0.150756
vn 0.612372 0.353553 0.707107
vn -0.425227 0.857518 0.289561
vn -0.372413 0.514799 -0.772199
vn 0.783349 -0.603023 0.150756
vn -0.372413 -0.514799 0.772199
vn -0.425227 -0.857518 -0.289561
vn 0.612372 -0.353553 -0.707107
g cylinder10_cut14
usemtl Black
f 1//1 3//3 2//2
f 1//1 8//8 4//4
f 2//2 5//5 1//1
f 3//3 4//4 6//6
f 3//3 6//6 2//2
f 4//4 3//3 1//1
f 5//5 7//7 8//8
f 5//5 8//8 1//1
f 6//6 5//5 2//2
f 6//6 7//7 5//5
f 7//7 6//6 4//4
f 8//8 7//7 4//4
o cylinder11_copy13
#12 vertices, 20 faces
v -1.04298 0.237897 0.760762
v -0.974303 0.00000e+0 0.879710
v -1.04298 -0.237897 0.760762
v -1.18033 -0.237897 0.522865
v -1.24900 7.54984e-16 0.403916
v -1.18033 0.237897 0.522865
v -0.493825 0.237897 0.443708
v -0.425150 0.00000e+0 0.562657
v -0.493825 -0.237897 0.443708
v -0.631175 -0.237897 0.205811
v -0.699850 4.44089e-16 8.68623e-2
v -0.631175 0.237897 0.205811
vn -4.00297e-16 0.832050 0.554700
vn -0.327327 -1.55261e-15 0.944911
vn -0.377964 -0.654654 0.654654
vn -0.649519 -0.750000 -0.125000
vn -0.913908 -0.150756 -0.376889
vn -0.866025 0.500000 -6.38378e-16
vn 0.649519 0.750000 0.125000
vn 0.944911 -1.12656e-15 0.327327
vn 0.818317 -0.566947 -9.44911e-2
vn -5.46737e-16 -0.832050 -0.554700
vn 0.324760 0.125000 -0.937500
vn 0.391675 0.753778 -0.527645
g cylinder11_copy13
usemtl Black
f 9//9 14//14 10//10
f 10//10 14//14 11//11
f 11//11 13//13 12//12
f 13//13 11//11 14//14
usemtl Grey
f 9//9 16//16 15//15
f 9//9 20//20 14//14
f 10//10 16//16 9//9
f 11//11 16//16 10//10
f 11//11 18//18 17//17
f 12//12 18//18 11//11
f 13//13 18//18 12//12
f 14//14 19//19 13//13
f 15//15 20//20 9//9
f 16//16 20//20 15//15
f 17//17 16//16 11//11
f 17//17 19//19 16//16
f 18//18 19//19 17//17
f 19//19 18//18 13//13
f 20//20 16//16 19//19
f 20//20 19//19 14//14
o cylinder11_copy12
#12 vertices, 20 faces
v 1.18033 -0.237897 0.522865
v 1.04298 -0.237897 0.760762
v 0.974303 -2.88642e-16 0.879710
v 1.04298 0.237897 0.760762
v 1.18033 0.237897 0.522865
v 1.24900 -7.77237e-17 0.403916
v 0.631175 -0.237897 0.205811
v 0.493825 -0.237897 0.443708
v 0.425150 -4.44089e-16 0.562657
v 0.493825 0.237897 0.443708
v 0.631175 0.237897 0.205811
v 0.699850 0.00000e+0 8.68623e-2
vn 0.875000 -0.433013 0.216506
vn -2.66764e-16 -0.832050 0.554700
vn 0.327327 -3.77662e-16 0.944911
vn 0.377964 0.654654 0.654654
vn 0.612372 0.707107 -0.353553
vn 0.913908 -0.150756 -0.376889
vn -0.216506 -0.750000 -0.625000
vn -0.649519 -0.750000 0.125000
vn -0.944911 -4.11860e-16 0.327327
vn -0.818317 0.566947 -9.44911e-2
vn -0.153093 0.883883 -0.441942
vn -0.324760 0.125000 -0.937500
g cylinder11_copy12
usemtl Black
f 21//21 23//23 22//22
f 23//23 21//21 24//24
f 24//24 26//26 25//25
f 26//26 24//24 21//21
usemtl Grey
f 21//21 27//27 26//26
f 22//22 27//27 21//21
f 22//22 29//29 28//28
f 23//23 29//29 22//22
f 24//24 29//29 23//23
f 24//24 31//31 30//30
f 25//25 31//31 24//24
f 25//25 32//32 31//31
f 26//26 27//27 32//32
f 26//26 32//32 25//25
f 27//27 29//29 32//32
f 28//28 27//27 22//22
f 28//28 29//29 27//27
f 30//30 29//29 24//24
f 30//30 32//32 29//29
f 31//31 32//32 30//30
o cylinder11
#12 vertices, 20 faces
v 0.274700 2.90366e-16 -1.28363
v 0.137350 0.237897 -1.28363
v -0.137350 0.237897 -1.28363
v -0.274700 2.13507e-17 -1.28363
v -0.137350 -0.237897 -1.28363
v 0.137350 -0.237897 -1.28363
v 0.274700 3.33067e-16 -0.649519
v 0.137350 0.237897 -0.649519
v -0.137350 0.237897 -0.649519
v -0.274700 0.00000e+0 -0.649519
v -0.137350 -0.237897 -0.649519
v 0.137350 -0.237897 -0.649519
vn 0.649519 -0.125000 -0.750000
vn 0.612372 0.707107 -0.353553
vn -0.261116 0.753778 -0.603023
vn -0.755929 2.42271e-17 -0.654654
vn -0.306186 -0.883883 -0.353553
vn 0.327327 -0.566947 -0.755929
vn 0.783349 0.150756 0.603023
vn 0.306186 0.883883 0.353553
vn -0.433013 0.500000 0.750000
vn -0.654654 4.19625e-17 0.755929
vn -0.612372 -0.707107 0.353553
vn 0.377964 -0.654654 0.654654
g cylinder11
usemtl Black
f 33//33 35//35 34//34
f 35//35 33//33 36//36
f 36//36 38//38 37//37
f 38//38 36//36 33//33
usemtl Grey
f 33//33 44//44 38//38
f 34//34 39//39 33//33
f 35//35 40//40 34//34
f 36//36 41//41 35//35
f 36//36 43//43 42//42
f 37//37 43//43 36//36
f 37//37 44//44 43//43
f 38//38 44//44 37//37
f 39//39 41//41 44//44
f 39//39 44//44 33//33
f 40//40 39//39 34//34
f 40//40 41//41 39//39
f 41//41 40//40 35//35
f 42//42 41//41 36//36
f 42//42 44//44 41//41
f 43//43 44//44 42//42
o cylinder10
#8 vertices, 12 faces
v -0.375000 0.750000 0.649519
v -0.750000 0.750000 9.18455e-17
v -0.375000 0.750000 -0.649519
v 0.375000 0.750000 -0.649519
v 0.375000 -0.750000 0.649519
v -0.375000 -0.750000 0.649519
v -0.750000 -0.750000 9.18455e-17
v -0.375000 -0.750000 -0.649519
vn 0.372413 0.514799 0.772199
vn -0.783349 0.603023 0.150756
vn -0.612372 0.353553 -0.707107
vn 0.425227 0.857518 -0.289561
vn 0.425227 -0.857518 0.289561
vn -0.612372 -0.353553 0.707107
vn -0.783349 -0.603023 -0.150756
vn 0.372413 -0.514799 -0.772199
g cylinder10
usemtl Black
f 45//45 48//48 46//46
f 46//46 48//48 47//47
f 46//46 50//50 45//45
f 47//47 51//51 46//46
f 48//48 45//45 52//52
f 48//48 52//52 47//47
f 49//49 52//52 45//45
f 50//50 49//49 45//45
f 50//50 51//51 49//49
f 51//51 50//50 46//46
f 52//52 49//49 51//51
f 52//52 51//51 47//47
o cube1_cut3
#4 vertices, 4 faces
v -3.97219e-6 -0.750000 -1.63299
v -5.21361e-16 -1.90470 -9.40907e-16
v 1.41422 -0.750000 0.816493
v -1.41421 -0.750000 0.816500
vn -2.38994e-6 -0.186157 -0.982520
vn -1.92296e-16 -1.00000 -4.16642e-16
vn 0.850889 -0.186157 0.491258
vn -0.850886 -0.186157 0.491262
g cube1_cut3
usemtl Black
f 56//56 55//55 53//53
usemtl Gold
f 53//53 55//55 54//54
f 54//54 56//56 53//53
f 55//55 56//56 54//54
o cube1_cut2
#4 vertices, 4 faces
v -1.41421 0.750000 0.816496
v -1.64090e-16 1.90470 -5.10163e-18
v 1.41421 0.750000 0.816497
v 3.61108e-7 0.750000 -1.63299
vn -0.850887 0.186157 0.491260
vn -6.40988e-17 1.00000 -6.40988e-17
vn 0.850887 0.186157 0.491260
vn 2.17267e-7 0.186157 -0.982520
g cube1_cut2
usemtl Black
f 57//57 60//60 59//59
usemtl Gold
f 57//57 59//59 58//58
f 58//58 60//60 57//57
f 59//59 60//60 58//58
